{"title":"Everest.2015.BRRip.720p.x264.AAC-PRiSTiNE [P2PDL]","uid":13013118,"size":903456252,"categoryP":"video","categoryS":"hd___movies","magnet":"?xt=urn:btih:93ad60382fef55ef7520fa9c4a6be28aeba56619&amp;dn=Everest.2015.BRRip.720p.x264.AAC-PRiSTiNE+%5BP2PDL%5D&amp;tr=udp%3A%2F%2Ftracker.leechers-paradise.org%3A6969&amp;tr=udp%3A%2F%2Fzer0day.ch%3A1337&amp;tr=udp%3A%2F%2Fopen.demonii.com%3A1337&amp;tr=udp%3A%2F%2Ftracker.coppersurfer.tk%3A6969&amp;tr=udp%3A%2F%2Fexodus.desync.com%3A6969","seeders":1,"leechers":0,"uploader":"VYTOP2PDL","files":7,"time":1450270988,"description":"____    ____ ____    ____ .___________.  ______   \r\n     /   /      /   / |           | /  __    \r\n    /   /      /   /  `---|  |----`|  |  |  | \r\n        /     _    _/       |  |     |  |  |  | \r\n       /        |  |         |  |     |  `--'  | \r\n    __/         |__|         |__|      ______/  \r\n                                                  \r\nPresenting Small Encodes with quality for years!\r\n                                                                                                   \r\n                                                                                                   \r\n\r\nEverest.2015.BRRip.720p.x264.AAC-PRiSTiNE\r\n\r\n\r\nGenre: Adventure, Biography, Drama   \nhttp://www.imdb.com/title/tt2719848/\r\n\r\n\r\nFormat                                   : MPEG-4\r\nFile size                                : 852 MiB\r\nDuration                                 : 2h 1mn\r\nOverall bit rate                         : 983 Kbps\r\n\r\nVideo\r\nFormat                                   : AVC\r\nBit rate                                 : 900 Kbps\r\nWidth                                    : 1 280 pixels\r\nHeight                                   : 536 pixels\r\nDisplay aspect ratio                     : 2.40:1\r\nFrame rate mode                          : Constant\r\nFrame rate                               : 23.976 fps\r\nBit depth                                : 8 bits\r\nStream size                              : 780 MiB (92%)\r\nWriting library                          : x264\r\n\r\nAudio\r\nFormat                                   : AAC\r\nBit rate mode                            : Variable\r\nBit rate                                 : 80.0 Kbps\r\nChannel(s)                               : 2 channels\r\nChannel positions                        : Front: L R\r\nSampling rate                            : 48.0 KHz\r\nStream size                              : 69.3 MiB (8%)\r\nLanguage                                 : English\r\n \r\nSubtitle                                 : Yes (English)\r\n\r\nScreen Shots: (Click to view)\r\n \nhttp://ititli.com/Np \nhttp://ititli.com/ND \nhttp://ititli.com/Na \nhttp://ititli.com/Nb \nhttp://ititli.com/Nz \nhttp://ititli.com/NI \nhttp://ititli.com/NO \nhttp://ititli.com/P9 \nhttp://ititli.com/PX\r\n\r\n----------------------------------------------------------------------------------------------------\r\n\r\n\r\nEncoder Notes: Looking For Early Access To Anything You Can Provide WEBDL, DVDScr, DVDR, BluRay,\r\nDirect Audio, Music Releases and Seedboxes. If You Got anything to offer please contact us.\r\n\r\nSupport us by donating BC - 1FgwdzPsd1y25Gea8wP1qni35uGCtmkRCD\r\n\r\nSend some love!\r\nFind us and join us!","torrent":{"xt":"urn:btih:93ad60382fef55ef7520fa9c4a6be28aeba56619","amp;dn":"Everest.2015.BRRip.720p.x264.AAC-PRiSTiNE+%5BP2PDL%5D","amp;tr":["udp%3A%2F%2Ftracker.leechers-paradise.org%3A6969","udp%3A%2F%2Fzer0day.ch%3A1337","udp%3A%2F%2Fopen.demonii.com%3A1337","udp%3A%2F%2Ftracker.coppersurfer.tk%3A6969","udp%3A%2F%2Fexodus.desync.com%3A6969"],"infoHash":"93ad60382fef55ef7520fa9c4a6be28aeba56619","infoHashBuffer":{"type":"Buffer","data":[147,173,96,56,47,239,85,239,117,32,250,156,74,107,226,138,235,165,102,25]},"announce":[],"urlList":[]}}